<?xml version="1.0" encoding="utf-8"?>
<!-- Generator: Adobe Illustrator 27.1.0, SVG Export Plug-In . SVG Version: 6.00 Build 0)  -->
<svg version="1.1" id="Capa_1" xmlns="http://www.w3.org/2000/svg" xmlns:xlink="http://www.w3.org/1999/xlink" x="0px" y="0px"
	 viewBox="0 0 427 400" style="enable-background:new 0 0 427 400;" xml:space="preserve">
<style type="text/css">
	.st0{fill:#0C002B;}
	.st1{fill:#FFFFFF;}
	.st2{fill:url(#SVGID_1_);}
</style>
<rect x="-23" y="-18" class="st0" width="458" height="420"/>
<g>
	<g>
		<path class="st1" d="M396.4,238.1h-30.2L341.8,210l-24.3,28.1h-29.9l39.6-44.9L289.7,150H319l23.2,26.4l23.2-26.4h28.4l-37.1,42.9
			L396.4,238.1z"/>
	</g>
	
		<linearGradient id="SVGID_1_" gradientUnits="userSpaceOnUse" x1="155.299" y1="353.5203" x2="210.5523" y2="40.1632" gradientTransform="matrix(1 0 0 -1 0 402)">
		<stop  offset="0" style="stop-color:#26C6F4"/>
		<stop  offset="1" style="stop-color:#1356DA"/>
	</linearGradient>
	<path class="st2" d="M70.2,70.5c-7.6,1.1-15.5-1.4-23,1.7c-0.9,0.1-1.9,0.2-2.8,0.3c-8.4,0-16.8,0-25.1,0c7.5,5,15.9,3.6,23.7,5.3
		c19.9,1.8,39.8,5,59.9,5c2.8,0,6.6-0.1,9.3,2.4c-8.7,4.1-18.1,2.6-27.2,3.2c-8.7,0-17.5-1.7-26.1,1.1c-3.8,0.1-7.6,0.1-11.4,0.2
		c-9.6,0.4-19.3-1.8-28.7,1.5c2.3,3.3,5.8,2.4,9.1,2.7c9,0.8,18,1.8,26.9,2.7c10.8-0.4,21.1,4.1,31.9,3.2c1.6-0.1,3.6,0.3,3.8,2.4
		c0.2,2.3-2.2,2.2-3.5,2.8c-5.2,2.3-10.6,2-16.1,1.8c-3-0.1-6.8-0.5-7.4,3.8c-1.4,10.6-5,20.7-7.1,31.1c-1.9,8.2-3.8,16.4-5.7,24.6
		c-2.7,12.1-5.1,24.2-8.8,36c-0.6,3-1.1,6.1-1.7,9.1c-2.4,13.4-7.4,26.3-8.7,40c-4.5,12.7-5.9,26.2-9.8,39
		c-1.5,6.9-3.1,13.7-4.5,20.5c-0.8,3.7-3.6,7.5-0.1,11.2c1.4,1.7,3.4,1.4,5.3,1.4c21,0,42.1,0,63.2,0c1.9,0,3.9,0.4,5.3-1.3
		c2-1,3.7-2.2,4.2-4.5c6.3-15.2,8.6-31.6,12.6-47.5c2.3-9.3,5.6-16.6,13.4-21.8c4.4-1.1,7.1-4.7,10.4-7.3c8.7-6.8,8.6-6.9,16.8,0.7
		c7.3,8.1,14.5,16.2,21.8,24.3c14.9,16.4,29.8,32.9,44.7,49.3c6.2,5.8,10,13.8,17.5,18.4c0.5,0.5,1,1,1.5,1.6c1.3,1.4,3,1.3,4.7,1.3
		c37.2,0,74.4,0,111.6,0c1.9,0,3.9,0.5,5.2-1.6c0-1.7-1.3-2.4-2.3-3.4c-29.6-28.5-59.1-57.1-88.8-85.6c-13.3-12.8-26.9-25.3-40.4-38
		c-6.7-7.3-13.7-14.4-21.7-20.4c-2.4-2.9-0.5-4.5,1.8-6.3c46.7-38.2,93.4-76.5,140.1-114.7c4.3-4.8-0.7-3.1-2.3-3.1
		c-32.7-0.1-65.4,0-98.1,0c-2.3,0-4.9-0.6-6.8,1.5c-24.8,20.4-48.1,42.6-71.2,64.9c-9.1,7.8-18.2,15.7-27.3,23.5
		c-1.6-5.8,2.8-10.6,2.8-16.2c3.5-11.8,7.3-23.5,9-35.8c1.4-5,3.7-9.9,4-14.9c0.3-5.1,4.8-11-1.4-15.7c-0.9-1.4-2.3-1.6-3.8-1.6
		c-25.1,0-50.3,0.1-75.4,0.2C72.5,69.5,71.4,70.1,70.2,70.5z"/>
</g>
</svg>
