<?xml version="1.0" encoding="utf-8"?>
<!-- Generator: Adobe Illustrator 27.1.0, SVG Export Plug-In . SVG Version: 6.00 Build 0)  -->
<svg version="1.1" id="Capa_1" xmlns="http://www.w3.org/2000/svg" xmlns:xlink="http://www.w3.org/1999/xlink" x="0px" y="0px"
	 viewBox="0 0 1200 400" enable-background="new 0 0 1200 400" xml:space="preserve">
<g>
	<g>
		<path fill="#FFFFFF" d="M459.78,232.84h-32.45l-20.75-23.38c-4.27-4.83-7.77-7.95-10.5-9.34c-2.73-1.39-5.64-2.09-8.71-2.09h-8.54
			v34.8h-28.18v-89.86h46.37c31.48,0,47.23,8.12,47.23,24.36c0,6.11-2.63,11.35-7.9,15.72c-5.27,4.37-12.51,7.44-21.73,9.22v0.23
			c6.09,1.39,12.84,5.96,20.24,13.69L459.78,232.84z M378.82,157.55v25.87h13.84c6.6,0,11.91-1.3,15.93-3.92
			c4.01-2.61,6.02-5.87,6.02-9.77c0-8.12-7.15-12.18-21.44-12.18H378.82z"/>
	</g>
	<g>
		<path fill="#FFFFFF" d="M504.87,144.11l17.57,0.13c12.87,0,21.67,2.6,26.41,7.79c4.74,5.2,7.1,15.59,7.1,31.18v4.23
			c0,18.32-1.88,30.58-5.64,36.79c-3.76,6.21-13.27,9.31-28.52,9.31l-16.59,0.4l-6.94,0.13l-14.97-0.66
			c-8.39,0-14.86-2.31-19.41-6.94c-4.56-4.62-6.83-12.09-6.83-22.39l-0.22-16.25c0-17.88,1.88-29.57,5.64-35.07
			c3.76-5.5,12.69-8.26,26.79-8.26L504.87,144.11z M492.94,212.14l11.82,0.26l11.28-0.13c6.22,0,10.68-0.82,13.4-2.45
			c2.71-1.63,4.07-5.67,4.07-12.12l0.22-11.93c0-4.06-0.2-7.53-0.6-10.4c-0.4-2.87-1.21-4.99-2.44-6.36
			c-1.23-1.37-3.06-2.27-5.48-2.72c-2.42-0.44-5.01-0.66-7.75-0.66l-21.91,0.13c-4.99,0-8.78,0.62-11.39,1.86
			c-2.6,1.24-4.1,3.86-4.5,7.88c-0.4,4.02-0.6,7.35-0.6,10v2.38v3.58c0,8.13,0.78,13.6,2.33,16.43
			C482.95,210.73,486.8,212.14,492.94,212.14z"/>
		<path fill="#FFFFFF" d="M637.45,233.15l-43.53-66.19v66.19H573.2v-88.12h35.05l43.58,66.06v-66.06h20.72v88.12H637.45z"/>
		<path fill="#FFFFFF" d="M691.42,233.15v-88.12h22.02v88.12H691.42z"/>
		<path fill="#FFFFFF" d="M834.48,233.15h-30.17l-24.41-28.1l-24.27,28.1h-29.94l39.59-44.92l-37.52-43.2h29.37l23.19,26.42
			l23.19-26.42h28.36l-37.07,42.92L834.48,233.15z"/>
	</g>
	<linearGradient id="SVGID_1_" gradientUnits="userSpaceOnUse" x1="155.2922" y1="48.4784" x2="210.5444" y2="361.8293">
		<stop  offset="0" style="stop-color:#26C6F4"/>
		<stop  offset="1" style="stop-color:#1356DA"/>
	</linearGradient>
	<path fill="url(#SVGID_1_)" d="M70.25,70.49c-7.63,1.09-15.51-1.41-22.99,1.69c-0.94,0.09-1.89,0.19-2.83,0.28
		c-8.38,0-16.76,0-25.13,0c7.49,4.96,15.89,3.62,23.74,5.33c19.93,1.85,39.75,4.97,59.87,4.96c2.82,0,6.64-0.09,9.27,2.41
		c-8.72,4.12-18.1,2.55-27.23,3.21c-8.73,0.01-17.54-1.73-26.14,1.13c-3.81,0.07-7.63,0.14-11.44,0.22
		c-9.58,0.4-19.29-1.75-28.73,1.48c2.3,3.35,5.82,2.43,9.07,2.72c8.98,0.78,17.95,1.76,26.92,2.66c10.79-0.38,21.08,4.13,31.94,3.22
		c1.57-0.13,3.64,0.31,3.85,2.41c0.23,2.33-2.21,2.2-3.53,2.79c-5.15,2.28-10.63,2.03-16.12,1.84c-2.97-0.1-6.8-0.53-7.38,3.76
		c-1.43,10.58-4.95,20.66-7.06,31.08c-1.9,8.21-3.81,16.42-5.71,24.63c-2.66,12.08-5.09,24.22-8.83,36.03
		c-0.56,3.03-1.14,6.07-1.68,9.1c-2.4,13.45-7.42,26.33-8.68,40.02c-4.5,12.71-5.89,26.19-9.82,39.05
		c-1.52,6.85-3.11,13.67-4.52,20.54c-0.76,3.7-3.57,7.46-0.11,11.23c1.44,1.72,3.44,1.43,5.32,1.43c21.05,0.03,42.1,0.05,63.15,0.03
		c1.86,0,3.88,0.4,5.35-1.32c2.01-0.95,3.72-2.18,4.25-4.52c6.35-15.24,8.64-31.63,12.59-47.49c2.32-9.31,5.58-16.62,13.45-21.84
		c4.43-1.05,7.11-4.67,10.44-7.28c8.69-6.82,8.63-6.91,16.8,0.68c7.27,8.09,14.53,16.17,21.8,24.26
		c14.91,16.43,29.82,32.87,44.73,49.3c6.22,5.75,9.99,13.82,17.46,18.39c0.5,0.52,1.01,1.04,1.51,1.56c1.3,1.41,3.02,1.26,4.69,1.26
		c37.2,0.01,74.41,0.02,111.61,0c1.85,0,3.92,0.5,5.16-1.59c-0.02-1.66-1.29-2.44-2.32-3.44c-29.58-28.54-59.1-57.15-88.75-85.63
		c-13.33-12.8-26.91-25.33-40.37-37.99c-6.74-7.33-13.66-14.45-21.68-20.42c-2.35-2.93-0.5-4.5,1.75-6.34
		c46.71-38.21,93.37-76.48,140.05-114.74c4.28-4.76-0.73-3.08-2.31-3.09c-32.7-0.07-65.4-0.05-98.09,0c-2.32,0-4.88-0.63-6.75,1.53
		c-24.81,20.44-48.05,42.6-71.16,64.9c-9.09,7.84-18.19,15.68-27.28,23.52c-1.59-5.82,2.83-10.62,2.76-16.18
		c3.5-11.79,7.32-23.51,9.04-35.75c1.43-4.96,3.74-9.87,4.04-14.9c0.3-5.14,4.79-11.04-1.39-15.69c-0.9-1.37-2.29-1.6-3.77-1.6
		c-25.14,0.04-50.28,0.07-75.42,0.17C72.5,69.5,71.37,70.14,70.25,70.49z"/>
	<g>
		
			<linearGradient id="SVGID_00000024710870748791553970000012884415860627320220_" gradientUnits="userSpaceOnUse" x1="918.9684" y1="145.5394" x2="918.9684" y2="233.8712">
			<stop  offset="0" style="stop-color:#26C6F4"/>
			<stop  offset="1" style="stop-color:#1356DA"/>
		</linearGradient>
		<path fill="url(#SVGID_00000024710870748791553970000012884415860627320220_)" d="M949.26,233.87h-60.58v-88.33h21.99v72.94h38.59
			V233.87z"/>
		
			<linearGradient id="SVGID_00000089567538684405602880000015976141356848501659_" gradientUnits="userSpaceOnUse" x1="988.6456" y1="169.2621" x2="988.6456" y2="235.4116">
			<stop  offset="0" style="stop-color:#26C6F4"/>
			<stop  offset="1" style="stop-color:#1356DA"/>
		</linearGradient>
		<path fill="url(#SVGID_00000089567538684405602880000015976141356848501659_)" d="M962.99,174.62c3.33-1.6,7.79-2.89,13.36-3.88
			c5.58-0.99,10.34-1.48,14.3-1.48c20.61,0,30.92,8.84,30.92,26.52v38.09h-20.46v-9.18h-0.27c-5.02,7.15-12.37,10.72-22.06,10.72
			c-6.98,0-12.56-1.7-16.76-5.1c-4.2-3.4-6.3-8.03-6.3-13.89c0-12.09,8.42-19.12,25.26-21.1l20.26-2.34
			c0-7.34-4.47-11.01-13.4-11.01c-8.8,0-17.08,2.28-24.86,6.84V174.62z M987.31,205.3c-7.78,0.88-11.66,3.88-11.66,9.01
			c0,2.36,0.94,4.26,2.83,5.7c1.89,1.44,4.43,2.17,7.63,2.17c4.4,0,8.02-1.33,10.86-3.99c2.84-2.66,4.27-5.97,4.27-9.92v-4.51
			L987.31,205.3z"/>
		
			<linearGradient id="SVGID_00000006702599852126076180000010269087305025280417_" gradientUnits="userSpaceOnUse" x1="1077.8496" y1="140.5206" x2="1077.8496" y2="235.4116">
			<stop  offset="0" style="stop-color:#26C6F4"/>
			<stop  offset="1" style="stop-color:#1356DA"/>
		</linearGradient>
		<path fill="url(#SVGID_00000006702599852126076180000010269087305025280417_)" d="M1061.56,226.29v7.58h-21.53v-93.35h21.53v39.92
			h0.27c5.64-7.45,13.68-11.18,24.13-11.18c9.29,0,16.56,2.78,21.83,8.33c5.27,5.55,7.9,13.21,7.9,22.98
			c0,10.46-3.02,18.88-9.06,25.26c-6.04,6.39-14.06,9.58-24.06,9.58c-9.15,0-16.06-3.04-20.73-9.12H1061.56z M1061.22,206.61
			c0,4.14,1.44,7.62,4.33,10.44c2.89,2.81,6.55,4.22,11,4.22c5.38,0,9.56-1.79,12.56-5.36c3-3.57,4.5-8.63,4.5-15.17
			c0-5.44-1.37-9.69-4.1-12.75c-2.73-3.06-6.63-4.59-11.7-4.59c-4.8,0-8.76,1.54-11.9,4.62c-3.13,3.08-4.7,7.03-4.7,11.86V206.61z"
			/>
		
			<linearGradient id="SVGID_00000083062256276406968870000016335599389128185482_" gradientUnits="userSpaceOnUse" x1="1156.8573" y1="169.2621" x2="1156.8573" y2="235.4116">
			<stop  offset="0" style="stop-color:#26C6F4"/>
			<stop  offset="1" style="stop-color:#1356DA"/>
		</linearGradient>
		<path fill="url(#SVGID_00000083062256276406968870000016335599389128185482_)" d="M1129,216.93c7.37,3.84,14.6,5.76,21.66,5.76
			c8.89,0,13.33-2.03,13.33-6.1c0-2.89-3.67-5.3-11-7.24c-9.15-2.43-15.44-5.14-18.86-8.13c-3.42-2.98-5.13-7.02-5.13-12.12
			c0-6.2,2.93-11.05,8.8-14.57c5.87-3.52,13.55-5.27,23.06-5.27c6.75,0,13.26,0.85,19.53,2.57v14.49
			c-5.73-2.89-12.04-4.33-18.93-4.33c-3.42,0-6.18,0.52-8.26,1.57s-3.13,2.42-3.13,4.13c0,2.89,3.11,5.23,9.33,7.01
			c6.66,1.9,11.67,3.63,15.03,5.19c3.35,1.56,5.91,3.61,7.66,6.16c1.76,2.55,2.63,5.49,2.63,8.84c0,6.5-3.04,11.55-9.13,15.14
			c-6.09,3.59-14.22,5.39-24.39,5.39c-8,0-15.39-1.08-22.19-3.25V216.93z"/>
	</g>
	<g>
		<path fill="#FFFFFF" d="M524.18,312.51c0.15-1.83,0.29-4.55,0.29-6.94V273.1h6.36v16.87h0.15c2.27-3,6.36-4.94,12.06-4.94
			c8.77,0,14.98,5.55,14.91,13.71c0,9.6-7.97,14.38-15.86,14.38c-5.12,0-9.21-1.5-11.84-5.05h-0.22l-0.29,4.44H524.18z
			 M530.84,301.74c0,0.61,0.15,1.22,0.29,1.78c1.24,3.39,4.97,5.72,9.65,5.72c6.72,0,10.74-4.16,10.74-10.32
			c0-5.38-3.65-9.99-10.52-9.99c-4.38,0-8.48,2.28-9.79,5.99c-0.15,0.55-0.37,1.22-0.37,2V301.74z"/>
		<path fill="#FFFFFF" d="M567.88,285.64l7.75,15.87c0.8,1.78,1.68,3.89,2.27,5.5h0.15c0.66-1.61,1.39-3.66,2.27-5.61l7.02-15.76
			h6.8l-9.65,19.15c-4.6,9.21-7.75,13.93-12.13,16.82c-3.14,2.11-6.28,2.94-7.89,3.16l-1.61-4.11c1.61-0.39,3.73-1.17,5.63-2.39
			c1.75-1.05,3.95-2.94,5.41-5.44c0.29-0.5,0.51-0.89,0.51-1.17c0-0.28-0.15-0.67-0.44-1.28l-13.08-24.75H567.88z"/>
		<path fill="#FFFFFF" d="M606.83,320.28c2.92-0.17,5.48-0.78,7.02-2.05c1.75-1.55,2.41-3.66,2.41-10.1v-22.48h6.43v24.37
			c0,5.22-1.1,8.6-4.24,11.05c-2.85,2.16-7.53,3.05-10.96,3.05L606.83,320.28z M623.42,278.09c0.07,1.61-1.46,3-4.02,3
			c-2.41,0-3.95-1.39-3.95-3c0-1.72,1.68-3.05,4.09-3.05C621.89,275.04,623.42,276.37,623.42,278.09z"/>
		<path fill="#FFFFFF" d="M662.81,305.18c0,2.77,0.07,5.22,0.29,7.33h-5.7l-0.37-4.38h-0.15c-1.68,2.16-5.41,5-11.69,5
			c-5.55,0-12.21-2.33-12.21-11.77v-15.71h6.43v14.88c0,5.11,2.05,8.55,7.89,8.55c4.31,0,7.31-2.28,8.48-4.44
			c0.37-0.72,0.58-1.61,0.58-2.5v-16.48h6.43V305.18z"/>
		<path fill="#FFFFFF" d="M673.48,294.02c0-3.16-0.07-5.88-0.29-8.38h5.63l0.22,5.27h0.29c1.61-3.61,5.48-5.88,9.79-5.88
			c0.73,0,1.24,0.06,1.83,0.17v4.61c-0.66-0.11-1.32-0.17-2.19-0.17c-4.53,0-7.75,2.61-8.62,6.27c-0.15,0.67-0.29,1.44-0.29,2.27
			v14.32h-6.36V294.02z"/>
		<path fill="#FFFFFF" d="M704.83,278.09c0.07,1.67-1.53,3-4.09,3c-2.27,0-3.87-1.33-3.87-3c0-1.72,1.68-3.05,4.02-3.05
			C703.29,275.04,704.83,276.37,704.83,278.09z M697.66,312.51v-26.86h6.43v26.86H697.66z"/>
		<path fill="#FFFFFF" d="M746.77,298.85c0,9.93-9.06,14.26-17.61,14.26c-9.57,0-16.96-5.33-16.96-13.82
			c0-8.99,7.75-14.26,17.54-14.26C739.9,285.03,746.77,290.64,746.77,298.85z M718.71,299.13c0,5.88,4.46,10.32,10.74,10.32
			c6.14,0,10.74-4.38,10.74-10.43c0-4.55-3-10.32-10.6-10.32S718.71,294.02,718.71,299.13z"/>
		<path fill="#FFFFFF" d="M754.88,292.91c0-2.77-0.07-5.05-0.29-7.27h5.7l0.37,4.44h0.15c1.75-2.55,5.85-5.05,11.69-5.05
			c4.9,0,12.5,2.22,12.5,11.43v16.04h-6.43v-15.49c0-4.33-2.12-7.94-8.18-7.94c-4.24,0-7.53,2.28-8.62,5
			c-0.29,0.61-0.44,1.44-0.44,2.28v16.15h-6.43V292.91z"/>
	</g>
	
		<linearGradient id="SVGID_00000062892769941192890810000004748552861474546856_" gradientUnits="userSpaceOnUse" x1="-1744.3011" y1="1326.066" x2="-1612.9031" y2="1326.066" gradientTransform="matrix(-1 0 0 -1 -1239.7684 1618.9708)">
		<stop  offset="8.376965e-03" style="stop-color:#FFFFFF"/>
		<stop  offset="0.2801" style="stop-color:#FDFEFF"/>
		<stop  offset="0.4227" style="stop-color:#F5FCFE"/>
		<stop  offset="0.5353" style="stop-color:#E7F8FE"/>
		<stop  offset="0.6322" style="stop-color:#D4F3FD"/>
		<stop  offset="0.719" style="stop-color:#BBECFB"/>
		<stop  offset="0.7986" style="stop-color:#9DE4FA"/>
		<stop  offset="0.8727" style="stop-color:#78D9F8"/>
		<stop  offset="0.9406" style="stop-color:#50CEF5"/>
		<stop  offset="1" style="stop-color:#25C2F3"/>
	</linearGradient>
	<path opacity="0.52" fill="url(#SVGID_00000062892769941192890810000004748552861474546856_)" d="M504.53,293.89
		c-43.8-0.02-87.6-0.05-131.4-0.07c2.12-2.49,5.01-1.75,7.64-1.75c38.73-0.05,77.46-0.06,116.19-0.02
		C499.58,292.04,502.5,291.23,504.53,293.89z"/>
	
		<linearGradient id="SVGID_00000011730964531938025870000000168710177515320726_" gradientUnits="userSpaceOnUse" x1="716.6362" y1="239.1766" x2="848.0342" y2="239.1766" gradientTransform="matrix(1 0 0 1 89.4316 53.9111)">
		<stop  offset="8.376965e-03" style="stop-color:#FFFFFF"/>
		<stop  offset="0.2801" style="stop-color:#FDFEFF"/>
		<stop  offset="0.4227" style="stop-color:#F5FCFE"/>
		<stop  offset="0.5353" style="stop-color:#E7F8FE"/>
		<stop  offset="0.6322" style="stop-color:#D4F3FD"/>
		<stop  offset="0.719" style="stop-color:#BBECFB"/>
		<stop  offset="0.7986" style="stop-color:#9DE4FA"/>
		<stop  offset="0.8727" style="stop-color:#78D9F8"/>
		<stop  offset="0.9406" style="stop-color:#50CEF5"/>
		<stop  offset="1" style="stop-color:#25C2F3"/>
	</linearGradient>
	<path opacity="0.52" fill="url(#SVGID_00000011730964531938025870000000168710177515320726_)" d="M806.07,292.11
		c43.8,0.02,87.6,0.05,131.4,0.07c-2.12,2.49-5.01,1.75-7.64,1.75c-38.73,0.05-77.46,0.06-116.19,0.02
		C811.02,293.95,808.1,294.77,806.07,292.11z"/>
</g>
<g>
</g>
<g>
</g>
<g>
</g>
<g>
</g>
<g>
</g>
<g>
</g>
<g>
</g>
<g>
</g>
<g>
</g>
<g>
</g>
<g>
</g>
<g>
</g>
<g>
</g>
<g>
</g>
<g>
</g>
</svg>
