<svg xmlns="http://www.w3.org/2000/svg" viewBox="0 0 340 700">
  <g fill="#ffffff">
    <rect x="182" y="68" width="44" height="18" rx="2"/>

    <rect x="76" y="120" width="18" height="96" rx="2"/>
    <rect x="76" y="198" width="62" height="18" rx="2"/>

    <rect x="176" y="120" width="18" height="96" rx="2"/>
    <rect x="176" y="120" width="70" height="18" rx="2"/>
    <rect x="176" y="160" width="58" height="18" rx="2"/>
    <rect x="176" y="198" width="70" height="18" rx="2"/>

    <polygon points="62,254 84,254 108,313 132,254 154,254 119,330 97,330"/>

    <rect x="176" y="254" width="18" height="76" rx="2"/>
    <rect x="176" y="254" width="64" height="18" rx="2"/>
    <rect x="176" y="312" width="64" height="18" rx="2"/>

    <rect x="76" y="366" width="18" height="84" rx="2"/>
    <rect x="62" y="366" width="76" height="18" rx="2"/>

    <circle cx="204" cy="408" r="38"/>
  </g>

  <g fill="none" stroke="#0b1220" stroke-linecap="round" stroke-width="7">
    <path d="M186 387 C197 397 208 408 218 423"/>
    <path d="M198 378 C209 388 220 401 231 416"/>
  </g>

  <g fill="#ffffff" font-family="Arial, Helvetica, sans-serif" font-weight="700" letter-spacing="7">
    <text x="78" y="520" font-size="28">PANADERÍA</text>
    <text x="78" y="562" font-size="28">VITAL</text>
  </g>
</svg>
